# xmcd
#
# Track frame offsets:
#	150
#	40129
#	90231
#	140090
#	191710
#	208247
#	241676
#	286927
#	304559
#	328580
#
# Disc length: 4698 seconds
#
# Revision: 1
# Processed by: cddbd v1.5.2PL0 Copyright (c) Steve Scherf et al.
# Submitted via: audiograbber 1.83.01
#
DISCID=8812580a
DTITLE=Grateful Dead - 80-05-08 Glens Falls Civic Centre, Glens Falls NY
DYEAR=1900
DGENRE=
TTITLE0=Uncle John's Band
TTITLE1=Estimated Prophet
TTITLE2=Eyes Of The World
TTITLE3=Drums
TTITLE4=Space
TTITLE5=Truckin'
TTITLE6=Stella Blue
TTITLE7=Around and Around
TTITLE8=Johnny B Goode
TTITLE9=US Blues
EXTD=
EXTT0=
EXTT1=
EXTT2=
EXTT3=
EXTT4=
EXTT5=
EXTT6=
EXTT7=
EXTT8=
EXTT9=
PLAYORDER=
